G04*
G04 #@! TF.GenerationSoftware,Altium Limited,Altium Designer,25.0.2 (28)*
G04*
G04 Layer_Color=0*
%FSTAX25Y25*%
%MOIN*%
G70*
G04*
G04 #@! TF.SameCoordinates,1D9F657F-D979-4B8D-A71A-BEDC461EC683*
G04*
G04*
G04 #@! TF.FilePolarity,Positive*
G04*
G01*
G75*
%ADD79C,0.00100*%
G36*
X0009073Y0185531D02*
Y0185335D01*
X0009223Y0184973D01*
X0009501Y0184696D01*
X0009863Y0184546D01*
X0010255D01*
X0010617Y0184696D01*
X0010895Y0184973D01*
X0011045Y0185335D01*
Y0185531D01*
D01*
Y0201532D01*
Y0201728D01*
X0010895Y020209D01*
X0010617Y0202367D01*
X0010255Y0202517D01*
X0009863D01*
X0009501Y0202367D01*
X0009223Y020209D01*
X0009073Y0201728D01*
Y0201532D01*
D01*
Y0185531D01*
D02*
G37*
G36*
X0131335Y0039363D02*
X0131404Y0039288D01*
X013157Y0039169D01*
X0131757Y0039088D01*
X0131957Y0039046D01*
X0132059D01*
D01*
X0149059D01*
X0149161D01*
X0149361Y0039088D01*
X0149548Y0039169D01*
X0149714Y0039288D01*
X0149783Y0039363D01*
Y0039363D01*
X015628Y0046359D01*
X0156343Y0046426D01*
X0156442Y0046584D01*
X015651Y0046756D01*
X0156545Y0046939D01*
Y0047032D01*
D01*
Y0067532D01*
Y0067728D01*
X0156395Y006809D01*
X0156117Y0068367D01*
X0155755Y0068517D01*
X0155363D01*
X0155001Y0068367D01*
X0154723Y006809D01*
X0154573Y0067728D01*
Y0067532D01*
D01*
Y0047419D01*
X0148629Y0041017D01*
X0132489D01*
X0126545Y0047419D01*
Y0067532D01*
Y0067728D01*
X0126395Y006809D01*
X0126117Y0068367D01*
X0125755Y0068517D01*
X0125363D01*
X0125001Y0068367D01*
X0124723Y006809D01*
X0124573Y0067728D01*
Y0067532D01*
D01*
Y0047032D01*
Y0046939D01*
X0124608Y0046756D01*
X0124676Y0046584D01*
X0124775Y0046426D01*
X0124839Y0046359D01*
Y0046359D01*
X0131335Y0039363D01*
D02*
G37*
G36*
X0050559Y0068546D02*
X0062151D01*
X0065073Y0065623D01*
Y0044032D01*
Y0043935D01*
X0065111Y0043744D01*
X0065185Y0043565D01*
X0065293Y0043404D01*
X0065361Y0043335D01*
X0065361D01*
X0071863Y0036834D01*
X0071931Y0036765D01*
X0072093Y0036658D01*
X0072272Y0036584D01*
X0072462Y0036546D01*
X0072559D01*
X0072559D01*
X0089059D01*
X0089156D01*
X0089347Y0036584D01*
X0089526Y0036658D01*
X0089687Y0036766D01*
X0089756Y0036834D01*
X0089756Y0036834D01*
X0096257Y0043335D01*
X0096325Y0043404D01*
X0096433Y0043565D01*
X0096507Y0043744D01*
X0096545Y0043935D01*
X0096545Y0044032D01*
X0096545Y0044032D01*
Y0067032D01*
Y0067228D01*
X0096395Y006759D01*
X0096117Y0067867D01*
X0095755Y0068017D01*
X0095363D01*
X0095001Y0067867D01*
X0094723Y006759D01*
X0094573Y0067228D01*
Y0067032D01*
D01*
Y004444D01*
X0088651Y0038517D01*
X0072967D01*
X0067045Y004444D01*
X0067045Y0066031D01*
Y0066129D01*
X0067007Y0066319D01*
X0066933Y0066498D01*
X0066825Y006666D01*
X0066756Y0066729D01*
X0066756Y0066729D01*
X0063255Y0070229D01*
X0063187Y0070298D01*
X0063025Y0070406D01*
X0062846Y007048D01*
X0062656Y0070517D01*
X0062559Y0070517D01*
X0062559Y0070517D01*
X0050967D01*
X0048545Y007294D01*
Y0084531D01*
Y0084728D01*
X0048395Y008509D01*
X0048117Y0085367D01*
X0047755Y0085517D01*
X0047363D01*
X0047001Y0085367D01*
X0046723Y008509D01*
X0046573Y0084728D01*
Y0084531D01*
D01*
Y0072531D01*
Y0072434D01*
X0046611Y0072244D01*
X0046685Y0072065D01*
X0046793Y0071903D01*
X0046862Y0071834D01*
X0046862D01*
X0049863Y0068834D01*
X0049931Y0068765D01*
X0050093Y0068657D01*
X0050272Y0068583D01*
X0050462Y0068546D01*
X0050559Y0068546D01*
X0050559D01*
D02*
G37*
D79*
X0Y0D02*
Y0244094D01*
X034252D01*
Y0D01*
X0D01*
M02*
