G04*
G04 #@! TF.GenerationSoftware,Altium Limited,Altium Designer,25.0.2 (28)*
G04*
G04 Layer_Color=16711935*
%FSTAX25Y25*%
%MOIN*%
G70*
G04*
G04 #@! TF.SameCoordinates,1D9F657F-D979-4B8D-A71A-BEDC461EC683*
G04*
G04*
G04 #@! TF.FilePolarity,Positive*
G04*
G01*
G75*
%ADD14C,0.01000*%
%ADD61C,0.01968*%
D14*
X0Y0D02*
X034252D01*
X0Y0244094D02*
X034252D01*
Y0D02*
Y0244094D01*
X0Y0D02*
Y0244094D01*
D61*
X0010059Y0185531D02*
Y0201532D01*
X0155559Y0047032D02*
Y0067532D01*
X0132059Y0040031D02*
X0149059D01*
X0155559Y0047032D01*
X0125559D02*
X0132059Y0040031D01*
X0125559Y0047032D02*
Y0048531D01*
Y0067532D01*
X0066059Y0044032D02*
Y0049031D01*
Y0044032D02*
X0072559Y0037532D01*
X0089059D01*
X0066059Y0044032D02*
X0069559Y0040532D01*
X0072559Y0037532D01*
X0095559Y0056532D02*
Y0067032D01*
Y0044032D02*
Y0056532D01*
X0092059Y0040532D02*
X0095559Y0044032D01*
X0089059Y0037532D02*
X0092059Y0040532D01*
X0066059Y0045531D02*
Y0066031D01*
X0062559Y0069532D02*
X0066059Y0066031D01*
X0061559Y0069532D02*
X0062559D01*
X0050559D02*
X0061559D01*
X0047559Y0072531D02*
X0050559Y0069532D01*
X0047559Y0072531D02*
Y0074532D01*
Y0075532D01*
Y0084531D01*
M02*
