G04*
G04 #@! TF.GenerationSoftware,Altium Limited,Altium Designer,25.0.2 (28)*
G04*
G04 Layer_Color=16711935*
%FSTAX25Y25*%
%MOIN*%
G70*
G04*
G04 #@! TF.SameCoordinates,1D9F657F-D979-4B8D-A71A-BEDC461EC683*
G04*
G04*
G04 #@! TF.FilePolarity,Positive*
G04*
G01*
G75*
%ADD11C,0.00500*%
%ADD13C,0.00787*%
%ADD15C,0.00600*%
%ADD17C,0.00591*%
%ADD76C,0.00394*%
G36*
X0247685Y0207031D02*
Y0205031D01*
X0243354Y0205031D01*
X0243354Y0207031D01*
X0247685Y0207031D01*
D02*
G37*
G36*
X0247685Y0212032D02*
X0247685Y0210032D01*
X0243354Y0210032D01*
X0243354Y0212032D01*
X0247685D01*
D02*
G37*
G36*
X0247685Y0217032D02*
X0247685Y0215032D01*
X0243354D01*
Y0217032D01*
X0247685Y0217032D01*
D02*
G37*
G36*
Y0222031D02*
Y0220031D01*
X0243354Y0220031D01*
X0243354Y0222031D01*
X0247685Y0222031D01*
D02*
G37*
G36*
X0267764Y0207031D02*
Y0205031D01*
X0263433Y0205031D01*
Y0207031D01*
X0267764Y0207031D01*
D02*
G37*
G36*
X0267759Y0212032D02*
Y0210032D01*
X0263433D01*
Y0212032D01*
X0267759D01*
D02*
G37*
G36*
X0267659Y0217032D02*
X0267659Y0215032D01*
X0263433D01*
Y0217032D01*
X0267659D01*
D02*
G37*
G36*
X0267759Y0222031D02*
Y0220031D01*
X0263433D01*
Y0222031D01*
X0267759D01*
D02*
G37*
D11*
X0285429Y0185185D02*
Y0191878D01*
X0296689Y0191878D01*
Y0185185D02*
Y0191878D01*
X0285429Y0185185D02*
X0296689Y0185185D01*
D13*
X003648Y0063767D02*
G03*
X003648Y0063767I-0000394J0D01*
G01*
D15*
X0291459Y0202031D02*
Y0218032D01*
Y0202031D02*
X0301659D01*
Y0218032D01*
X0291459D02*
X0301659D01*
X0203659Y0211032D02*
Y0227031D01*
X0193459D02*
X0203659D01*
X0193459Y0211032D02*
Y0227031D01*
Y0211032D02*
X0203659D01*
D17*
X0086374Y0069532D02*
X0086374Y020339D01*
X000724Y0069532D02*
Y020339D01*
X0086374D01*
X000724Y0069532D02*
X0086374D01*
D76*
X0332929Y0149031D02*
Y0159031D01*
X0313441Y0149031D02*
X0332929Y0149031D01*
X0313441Y0149031D02*
Y0159031D01*
X0332929Y0159031D01*
X0095559Y019265D02*
X0095559Y0173161D01*
X0105559D01*
X0105559Y019265D01*
X0095559D02*
X0105559D01*
X0246441Y0159031D02*
X0265929Y0159031D01*
X0246441Y0149031D02*
Y0159031D01*
Y0149031D02*
X0265929Y0149031D01*
Y0159031D01*
M02*
