G04*
G04 #@! TF.GenerationSoftware,Altium Limited,Altium Designer,25.0.2 (28)*
G04*
G04 Layer_Color=2752767*
%FSTAX25Y25*%
%MOIN*%
G70*
G04*
G04 #@! TF.SameCoordinates,1D9F657F-D979-4B8D-A71A-BEDC461EC683*
G04*
G04*
G04 #@! TF.FilePolarity,Positive*
G04*
G01*
G75*
%ADD11C,0.00500*%
%ADD78C,0.00667*%
D11*
X0133059Y0233492D02*
X0134059Y0235492D01*
X0133059Y0237492D01*
X0135059Y0236492D01*
X0137059Y0237492D01*
X0136059Y0235492D01*
X0137059Y0233492D01*
X0135059Y0234492D01*
X0133059Y0233492D01*
Y0203571D02*
X0134059Y0205571D01*
X0133059Y0207571D01*
X0135059Y0206571D01*
X0137059Y0207571D01*
X0136059Y0205571D01*
X0137059Y0203571D01*
X0135059Y0204571D01*
X0133059Y0203571D01*
X0050059Y0053031D02*
Y0052031D01*
X0052059D01*
Y0053031D01*
X0053059D01*
Y0055032D01*
X0052059D01*
Y0056032D01*
X0050059D01*
Y0055032D01*
X0049059D01*
Y0053031D01*
X0050059D01*
X0080059D02*
Y0052031D01*
X0082059D01*
Y0053031D01*
X0083059D01*
Y0055032D01*
X0082059D01*
Y0056032D01*
X0080059D01*
Y0055032D01*
X0079059D01*
Y0053031D01*
X0080059D01*
X0110059D02*
Y0052031D01*
X0112059D01*
Y0053031D01*
X0113059D01*
Y0055032D01*
X0112059D01*
Y0056032D01*
X0110059D01*
Y0055032D01*
X0109059D01*
Y0053031D01*
X0110059D01*
X0140059D02*
Y0052031D01*
X0142059D01*
Y0053031D01*
X0143059D01*
Y0055032D01*
X0142059D01*
Y0056032D01*
X0140059D01*
Y0055032D01*
X0139059D01*
Y0053031D01*
X0140059D01*
X0170059D02*
Y0052031D01*
X0172059D01*
Y0053031D01*
X0173059D01*
Y0055032D01*
X0172059D01*
Y0056032D01*
X0170059D01*
Y0055032D01*
X0169059D01*
Y0053031D01*
X0170059D01*
X0200559D02*
Y0052031D01*
X0202559D01*
Y0053031D01*
X0203559D01*
Y0055032D01*
X0202559D01*
Y0056032D01*
X0200559D01*
Y0055032D01*
X0199559D01*
Y0053031D01*
X0200559D01*
X0230559D02*
Y0052031D01*
X0232559D01*
Y0053031D01*
X0233559D01*
Y0055032D01*
X0232559D01*
Y0056032D01*
X0230559D01*
Y0055032D01*
X0229559D01*
Y0053031D01*
X0230559D01*
X0260559D02*
Y0052031D01*
X0262559D01*
Y0053031D01*
X0263559D01*
Y0055032D01*
X0262559D01*
Y0056032D01*
X0260559D01*
Y0055032D01*
X0259559D01*
Y0053031D01*
X0260559D01*
X0290559D02*
Y0052031D01*
X0292559D01*
Y0053031D01*
X0293559D01*
Y0055032D01*
X0292559D01*
Y0056032D01*
X0290559D01*
Y0055032D01*
X0289559D01*
Y0053031D01*
X0290559D01*
X0036874Y0076531D02*
X0034874Y0080532D01*
X0038874D01*
X0036874Y0076531D01*
X0056559D02*
X0054559Y0080532D01*
X0058559D01*
X0056559Y0076531D01*
X0016402Y019228D02*
X0014402Y019628D01*
X0018402D01*
X0016402Y019228D01*
X0077031D02*
X0075032Y019628D01*
X0079031D01*
X0077031Y019228D01*
X011198Y0078268D02*
Y0082268D01*
X011598D01*
Y0078268D01*
X011198D01*
X0182059Y0118032D02*
Y0122031D01*
X0186059D01*
Y0118032D01*
X0182059D01*
X011198Y0108189D02*
Y0112189D01*
X011598D01*
Y0108189D01*
X011198D01*
X014702Y0177874D02*
Y0181874D01*
X015102D01*
Y0177874D01*
X014702D01*
X0309559Y0193532D02*
X0307559Y0197531D01*
X0311559D01*
X0309559Y0193532D01*
Y0203532D02*
X0307559Y0207531D01*
X0311559D01*
X0309559Y0203532D01*
Y0223532D02*
X0307559Y0227532D01*
X0311559D01*
X0309559Y0223532D01*
Y0213531D02*
X0307559Y0217531D01*
X0311559D01*
X0309559Y0213531D01*
X0012008Y0226031D02*
X0010008Y0230031D01*
X0014008D01*
X0012008Y0226031D01*
X009311D02*
X009111Y0230031D01*
X009511D01*
X009311Y0226031D01*
X0237437Y0137437D02*
X0238437Y0138437D01*
X0239437D01*
X0238437Y0139437D01*
X0239437Y0140437D01*
X0238437D01*
X0237437Y0141437D01*
X0236437Y0140437D01*
X0235437D01*
X0236437Y0139437D01*
X0235437Y0138437D01*
X0236437D01*
X0237437Y0137437D01*
X0261059Y0081532D02*
X0262059Y0082531D01*
X0263059D01*
X0262059Y0083531D01*
X0263059Y0084531D01*
X0262059D01*
X0261059Y0085532D01*
X0260059Y0084531D01*
X0259059D01*
X0260059Y0083531D01*
X0259059Y0082531D01*
X0260059D01*
X0261059Y0081532D01*
X0213059Y0081532D02*
X0214059Y0082531D01*
X0215059D01*
X0214059Y0083531D01*
X0215059Y0084531D01*
X0214059D01*
X0213059Y0085532D01*
X0212059Y0084531D01*
X0211059D01*
X0212059Y0083531D01*
X0211059Y0082531D01*
X0212059D01*
X0213059Y0081532D01*
X0261059Y0129563D02*
X0262059Y0130563D01*
X0263059D01*
X0262059Y0131563D01*
X0263059Y0132563D01*
X0262059D01*
X0261059Y0133563D01*
X0260059Y0132563D01*
X0259059D01*
X0260059Y0131563D01*
X0259059Y0130563D01*
X0260059D01*
X0261059Y0129563D01*
X0213815D02*
X0214815Y0130563D01*
X0215815D01*
X0214815Y0131563D01*
X0215815Y0132563D01*
X0214815D01*
X0213815Y0133563D01*
X0212815Y0132563D01*
X0211815D01*
X0212815Y0131563D01*
X0211815Y0130563D01*
X0212815D01*
X0213815Y0129563D01*
X0304937Y0137437D02*
X0305937Y0138437D01*
X0306937D01*
X0305937Y0139437D01*
X0306937Y0140437D01*
X0305937D01*
X0304937Y0141437D01*
X0303937Y0140437D01*
X0302937D01*
X0303937Y0139437D01*
X0302937Y0138437D01*
X0303937D01*
X0304937Y0137437D01*
X0328559Y0081532D02*
X0329559Y0082531D01*
X0330559D01*
X0329559Y0083531D01*
X0330559Y0084531D01*
X0329559D01*
X0328559Y0085532D01*
X0327559Y0084531D01*
X0326559D01*
X0327559Y0083531D01*
X0326559Y0082531D01*
X0327559D01*
X0328559Y0081532D01*
X0280559D02*
X0281559Y0082531D01*
X0282559D01*
X0281559Y0083531D01*
X0282559Y0084531D01*
X0281559D01*
X0280559Y0085532D01*
X0279559Y0084531D01*
X0278559D01*
X0279559Y0083531D01*
X0278559Y0082531D01*
X0279559D01*
X0280559Y0081532D01*
X0328559Y0129563D02*
X0329559Y0130563D01*
X0330559D01*
X0329559Y0131563D01*
X0330559Y0132563D01*
X0329559D01*
X0328559Y0133563D01*
X0327559Y0132563D01*
X0326559D01*
X0327559Y0131563D01*
X0326559Y0130563D01*
X0327559D01*
X0328559Y0129563D01*
X0281315D02*
X0282315Y0130563D01*
X0283315D01*
X0282315Y0131563D01*
X0283315Y0132563D01*
X0282315D01*
X0281315Y0133563D01*
X0280315Y0132563D01*
X0279315D01*
X0280315Y0131563D01*
X0279315Y0130563D01*
X0280315D01*
X0281315Y0129563D01*
X0322008Y0030033D02*
X0323008D01*
X0324008Y0031033D01*
X0325008Y0030033D01*
X0326008D01*
Y0031033D01*
X0325008Y0032033D01*
X0326008Y0033033D01*
Y0034033D01*
X0325008D01*
X0324008Y0033033D01*
X0323008Y0034033D01*
X0322008D01*
Y0033033D01*
X0323008Y0032033D01*
X0322008Y0031033D01*
Y0030033D01*
X0330008D02*
X0332008Y0032033D01*
X0334008Y0030033D01*
X0332008Y0028033D01*
X0330008Y0030033D01*
X0329079Y0036275D02*
X0331079Y0038275D01*
X0333079Y0036275D01*
X0331079Y0034275D01*
X0329079Y0036275D01*
X0324008Y0040033D02*
X0326008Y0042033D01*
X0328008Y0040033D01*
X0326008Y0038033D01*
X0324008Y0040033D01*
X0317765Y0039104D02*
X0319765Y0041104D01*
X0321765Y0039104D01*
X0319765Y0037104D01*
X0317765Y0039104D01*
X0314008Y0034033D02*
X0316008Y0036033D01*
X0318008Y0034033D01*
X0316008Y0032033D01*
X0314008Y0034033D01*
X0314937Y002779D02*
X0316937Y002979D01*
X0318937Y002779D01*
X0316937Y002579D01*
X0314937Y002779D01*
X0320008Y0024033D02*
X0322008Y0026033D01*
X0324008Y0024033D01*
X0322008Y0022033D01*
X0320008Y0024033D01*
X0326251Y0024962D02*
X0328251Y0026962D01*
X0330251Y0024962D01*
X0328251Y0022962D01*
X0326251Y0024962D01*
X0326559Y0222031D02*
X0327559Y0224031D01*
X0326559Y0226031D01*
X0328559Y0225031D01*
X0330559Y0226031D01*
X0329559Y0224031D01*
X0330559Y0222031D01*
X0328559Y0223031D01*
X0326559Y0222031D01*
Y0212032D02*
X0327559Y0214032D01*
X0326559Y0216032D01*
X0328559Y0215032D01*
X0330559Y0216032D01*
X0329559Y0214032D01*
X0330559Y0212032D01*
X0328559Y0213032D01*
X0326559Y0212032D01*
Y0202031D02*
X0327559Y0204031D01*
X0326559Y0206031D01*
X0328559Y0205031D01*
X0330559Y0206031D01*
X0329559Y0204031D01*
X0330559Y0202031D01*
X0328559Y0203031D01*
X0326559Y0202031D01*
X0017059Y0031532D02*
X0018059D01*
X0019059Y0032531D01*
X0020059Y0031532D01*
X0021059D01*
Y0032531D01*
X0020059Y0033531D01*
X0021059Y0034532D01*
Y0035531D01*
X0020059D01*
X0019059Y0034532D01*
X0018059Y0035531D01*
X0017059D01*
Y0034532D01*
X0018059Y0033531D01*
X0017059Y0032531D01*
Y0031532D01*
X0025059D02*
X0027059Y0033531D01*
X0029059Y0031532D01*
X0027059Y0029531D01*
X0025059Y0031532D01*
X002413Y0037774D02*
X002613Y0039774D01*
X002813Y0037774D01*
X002613Y0035774D01*
X002413Y0037774D01*
X0019059Y0041532D02*
X0021059Y0043532D01*
X0023059Y0041532D01*
X0021059Y0039531D01*
X0019059Y0041532D01*
X0012816Y0040603D02*
X0014816Y0042603D01*
X0016816Y0040603D01*
X0014816Y0038603D01*
X0012816Y0040603D01*
X0009059Y0035531D02*
X0011059Y0037532D01*
X0013059Y0035531D01*
X0011059Y0033531D01*
X0009059Y0035531D01*
X0009988Y0029289D02*
X0011988Y0031289D01*
X0013988Y0029289D01*
X0011988Y0027289D01*
X0009988Y0029289D01*
X0015059Y0025532D02*
X0017059Y0027531D01*
X0019059Y0025532D01*
X0017059Y0023531D01*
X0015059Y0025532D01*
X0021302Y002646D02*
X0023302Y002846D01*
X0025302Y002646D01*
X0023302Y002446D01*
X0021302Y002646D01*
X008848Y0204272D02*
Y0208272D01*
X009248D01*
Y0204272D01*
X008848D01*
X008928Y0205072D02*
Y0207472D01*
X009168D01*
Y0205072D01*
X008928D01*
X0093559Y0204272D02*
Y0208272D01*
X0097559D01*
Y0204272D01*
X0093559D01*
X0094359Y0205072D02*
Y0207472D01*
X0096759D01*
Y0205072D01*
X0094359D01*
X009098Y0206532D02*
Y0210531D01*
X009498D01*
Y0206532D01*
X009098D01*
X009178Y0207331D02*
Y0209732D01*
X009418D01*
Y0207331D01*
X009178D01*
X0093559Y0208794D02*
Y0212794D01*
X0097559D01*
Y0208794D01*
X0093559D01*
X0094359Y0209594D02*
Y0211995D01*
X0096759D01*
Y0209594D01*
X0094359D01*
X0093559Y0206532D02*
Y0210531D01*
X0097559D01*
Y0206532D01*
X0093559D01*
X0094359Y0207331D02*
Y0209732D01*
X0096759D01*
Y0207331D01*
X0094359D01*
X009098Y0204272D02*
Y0208272D01*
X009498D01*
Y0204272D01*
X009098D01*
X009178Y0205072D02*
Y0207472D01*
X009418D01*
Y0205072D01*
X009178D01*
X008848Y0206532D02*
Y0210531D01*
X009248D01*
Y0206532D01*
X008848D01*
X008928Y0207331D02*
Y0209732D01*
X009168D01*
Y0207331D01*
X008928D01*
X008848Y0208794D02*
Y0212794D01*
X009248D01*
Y0208794D01*
X008848D01*
X008928Y0209594D02*
Y0211995D01*
X009168D01*
Y0209594D01*
X008928D01*
X009098Y0208794D02*
Y0212794D01*
X009498D01*
Y0208794D01*
X009098D01*
X009178Y0209594D02*
Y0211995D01*
X009418D01*
Y0209594D01*
X009178D01*
X0254059Y0181532D02*
Y0185531D01*
X0258059D01*
Y0181532D01*
X0254059D01*
X0254859Y0182332D02*
Y0184731D01*
X0257259D01*
Y0182332D01*
X0254859D01*
X0269059Y0158031D02*
Y0162031D01*
X0273059D01*
Y0158031D01*
X0269059D01*
X0269859Y0158832D02*
Y0161232D01*
X0272259D01*
Y0158832D01*
X0269859D01*
X0261559Y0158031D02*
Y0162031D01*
X0265559D01*
Y0158031D01*
X0261559D01*
X0262359Y0158832D02*
Y0161232D01*
X0264759D01*
Y0158832D01*
X0262359D01*
X0254059Y0158031D02*
Y0162031D01*
X0258059D01*
Y0158031D01*
X0254059D01*
X0254859Y0158832D02*
Y0161232D01*
X0257259D01*
Y0158832D01*
X0254859D01*
X0261559Y0187531D02*
Y0191532D01*
X0265559D01*
Y0187531D01*
X0261559D01*
X0262359Y0188331D02*
Y0190732D01*
X0264759D01*
Y0188331D01*
X0262359D01*
X0278059Y0181532D02*
Y0185531D01*
X0282059D01*
Y0181532D01*
X0278059D01*
X0278859Y0182332D02*
Y0184731D01*
X0281259D01*
Y0182332D01*
X0278859D01*
X0329648Y0156821D02*
Y0160821D01*
X0333648D01*
Y0156821D01*
X0329648D01*
X0330448Y0157621D02*
Y0160021D01*
X0332848D01*
Y0157621D01*
X0330448D01*
X0208059Y0183031D02*
Y0187031D01*
X0212059D01*
Y0183031D01*
X0208059D01*
X0208859Y0183832D02*
Y0186232D01*
X0211259D01*
Y0183832D01*
X0208859D01*
X0208059Y0157032D02*
Y0161031D01*
X0212059D01*
Y0157032D01*
X0208059D01*
X0208859Y0157832D02*
Y0160231D01*
X0211259D01*
Y0157832D01*
X0208859D01*
X0278047Y0200019D02*
Y0204019D01*
X0282047D01*
Y0200019D01*
X0278047D01*
X0278847Y0200819D02*
Y0203219D01*
X0281247D01*
Y0200819D01*
X0278847D01*
X0217559Y0176031D02*
Y0180032D01*
X0221559D01*
Y0176031D01*
X0217559D01*
X0218359Y0176831D02*
Y0179232D01*
X0220759D01*
Y0176831D01*
X0218359D01*
X0271559Y0216032D02*
Y0220031D01*
X0275559D01*
Y0216032D01*
X0271559D01*
X0272359Y0216831D02*
Y0219232D01*
X0274759D01*
Y0216831D01*
X0272359D01*
X0336764Y0239066D02*
Y0243066D01*
X0340764D01*
Y0239066D01*
X0336764D01*
X0337564Y0239866D02*
Y0242266D01*
X0339964D01*
Y0239866D01*
X0337564D01*
X0252059Y0239032D02*
Y0243032D01*
X0256059D01*
Y0239032D01*
X0252059D01*
X0252859Y0239831D02*
Y0242231D01*
X0255259D01*
Y0239831D01*
X0252859D01*
X0252059Y0218531D02*
Y0222532D01*
X0256059D01*
Y0218531D01*
X0252059D01*
X0252859Y0219332D02*
Y0221731D01*
X0255259D01*
Y0219332D01*
X0252859D01*
X0252059Y0206532D02*
Y0210531D01*
X0256059D01*
Y0206532D01*
X0252059D01*
X0252859Y0207331D02*
Y0209732D01*
X0255259D01*
Y0207331D01*
X0252859D01*
X0307559Y0173031D02*
Y0177032D01*
X0311559D01*
Y0173031D01*
X0307559D01*
X0308359Y0173831D02*
Y0176232D01*
X0310759D01*
Y0173831D01*
X0308359D01*
X0225493Y0169922D02*
Y0173922D01*
X0229493D01*
Y0169922D01*
X0225493D01*
X0226293Y0170722D02*
Y0173122D01*
X0228693D01*
Y0170722D01*
X0226293D01*
X0247059Y0169532D02*
Y0173531D01*
X0251059D01*
Y0169532D01*
X0247059D01*
X0247859Y0170332D02*
Y0172731D01*
X0250259D01*
Y0170332D01*
X0247859D01*
D78*
X0130941Y0170031D02*
G03*
X0130941Y0170031I-0002J0D01*
G01*
X0171098D02*
G03*
X0171098Y0170031I-0002J0D01*
G01*
M02*
