G04*
G04 #@! TF.GenerationSoftware,Altium Limited,Altium Designer,25.0.2 (28)*
G04*
G04 Layer_Color=16711935*
%FSTAX25Y25*%
%MOIN*%
G70*
G04*
G04 #@! TF.SameCoordinates,1D9F657F-D979-4B8D-A71A-BEDC461EC683*
G04*
G04*
G04 #@! TF.FilePolarity,Negative*
G04*
G01*
G75*
%ADD41R,0.08800X0.08800*%
%ADD42C,0.08800*%
%ADD43C,0.15761*%
%ADD44C,0.08674*%
%ADD45C,0.13068*%
%ADD46R,0.07099X0.07099*%
%ADD47C,0.07099*%
%ADD48C,0.10642*%
%ADD49C,0.12800*%
%ADD50C,0.20485*%
%ADD51C,0.02769*%
%ADD52O,0.08674X0.07099*%
%ADD56C,0.19685*%
D41*
X0135059Y0235492D02*
D03*
D42*
Y0205571D02*
D03*
D43*
X0051059Y0054031D02*
D03*
X0081059D02*
D03*
X0111059D02*
D03*
X0141059D02*
D03*
X0171059D02*
D03*
X0201559D02*
D03*
X0231559D02*
D03*
X0261559D02*
D03*
X0291559D02*
D03*
D44*
X0036874Y0078531D02*
D03*
X0056559D02*
D03*
X0016402Y019428D02*
D03*
X0077031D02*
D03*
X0128941Y0170031D02*
D03*
X0169098D02*
D03*
D45*
X011398Y0080268D02*
D03*
X0184059Y0120031D02*
D03*
X011398Y0110189D02*
D03*
X014902Y0179874D02*
D03*
D46*
X0309559Y0195531D02*
D03*
D47*
Y0205532D02*
D03*
Y0225532D02*
D03*
Y0215531D02*
D03*
D48*
X0012008Y0228031D02*
D03*
X009311D02*
D03*
D49*
X0237437Y0139437D02*
D03*
X0261059Y0083531D02*
D03*
X0213059Y0083531D02*
D03*
X0261059Y0131563D02*
D03*
X0213815D02*
D03*
X0304937Y0139437D02*
D03*
X0328559Y0083531D02*
D03*
X0280559D02*
D03*
X0328559Y0131563D02*
D03*
X0281315D02*
D03*
D50*
X0324008Y0032033D02*
D03*
X0019059Y0033531D02*
D03*
D51*
X0332008Y0030033D02*
D03*
X0331079Y0036275D02*
D03*
X0326008Y0040033D02*
D03*
X0319765Y0039104D02*
D03*
X0316008Y0034033D02*
D03*
X0316937Y002779D02*
D03*
X0322008Y0024033D02*
D03*
X0328251Y0024962D02*
D03*
X0027059Y0031532D02*
D03*
X002613Y0037774D02*
D03*
X0021059Y0041532D02*
D03*
X0014816Y0040603D02*
D03*
X0011059Y0035531D02*
D03*
X0011988Y0029289D02*
D03*
X0017059Y0025532D02*
D03*
X0023302Y002646D02*
D03*
D52*
X0328559Y0224031D02*
D03*
Y0214032D02*
D03*
Y0204031D02*
D03*
D56*
X0081059Y0078531D02*
Y0125531D01*
X0149559Y0143532D02*
X0169059D01*
X0184059Y0128532D01*
Y0120031D02*
Y0128532D01*
X0141059Y0054031D02*
Y0098658D01*
X011398Y0110189D02*
X0129528D01*
X0141059Y0098658D01*
X0081059Y0071031D02*
Y0078531D01*
X0099059Y0143532D02*
X0149559D01*
X0081059Y0125531D02*
X0099059Y0143532D01*
X014902Y0144071D02*
Y0179874D01*
X0081059Y0054031D02*
Y0071031D01*
M02*
