M48
;Layer_Color=9474304
;FILE_FORMAT=2:4
INCH,LZ
;TYPE=PLATED
T01F00S00C0.0118
T02F00S00C0.0197
T03F00S00C0.0315
T04F00S00C0.0433
T05F00S00C0.0450
T06F00S00C0.0472
T07F00S00C0.0709
T08F00S00C0.0827
T09F00S00C0.1220
%
T01
X009048Y020627
Y020853
Y021079
X009298
Y020853
Y020627
X009556
Y020853
Y021079
X021006Y018503
X021956Y017803
X022749Y017192
X021006Y015903
X025606Y016003
X026356
X027106
X028006Y018353
X028005Y020202
X026356Y018953
X025606Y018353
X024906Y017153
X025406Y020853
X030956Y017503
X033165Y015882
X033876Y024107
X025406Y024103
Y022053
X027356Y021803
T02
X031694Y002779
X031601Y003403
X031977Y00391
X032601Y004003
X033108Y003628
X033201Y003003
X032825Y002496
X032201Y002403
X00233Y002646
X001706Y002553
X001199Y002929
X001106Y003553
X001482Y00406
X002106Y004153
X002613Y003777
X002706Y003153
T03
X013506Y020557
X032856Y020403
Y021403
Y022403
X013506Y023549
T04
X003687Y007853
X005656
X007703Y019428
X00164
X030956Y019553
Y020553
Y021553
Y022553
X009311Y022803
X001201
T05
X021306Y008353
X021381Y013156
X023744Y013944
X026106Y013156
X028131
X030494Y013944
X032856Y013156
Y008353
X028056
X026106
T06
X012894Y017003
X01691
T07
X026156Y005403
X029156
X023156
X020156
X017106
X014106
X011106
X008106
X005106
T08
X011398Y008027
Y011019
X018406Y012003
X014902Y017987
T09
X032401Y003203
X001906Y003353
M30
